<svg width="20" height="20" viewBox="0 0 20 20" fill="none" xmlns="http://www.w3.org/2000/svg">
<path fill-rule="evenodd" clip-rule="evenodd" d="M11.8178 11.8178C9.62218 14.0134 6.06238 14.0134 3.86677 11.8178C1.67116 9.6222 1.67116 6.06241 3.86677 3.8668C6.06239 1.67118 9.62218 1.67118 11.8178 3.86679C14.0134 6.06241 14.0134 9.6222 11.8178 11.8178ZM12.493 13.9384C9.48737 16.2374 5.17013 16.0125 2.42113 13.2635C-0.572891 10.2694 -0.57289 5.41518 2.42113 2.42115C5.41515 -0.572867 10.2694 -0.572868 13.2634 2.42115C16.0123 5.17003 16.2374 9.48701 13.9386 12.4927L19.4076 17.9616L17.9619 19.4073L12.493 13.9384Z" fill="#999999"/>
</svg>
