<svg width="45" height="45" viewBox="0 0 45 45" fill="none" xmlns="http://www.w3.org/2000/svg">
<path fill-rule="evenodd" clip-rule="evenodd" d="M10.1135 18.9838L20.7674 8.32981L22.0933 9.65564L11.4393 20.3096L10.1135 18.9838Z" fill="#728BD7"/>
<path fill-rule="evenodd" clip-rule="evenodd" d="M13.6403 22.52L24.2943 11.866L25.6201 13.1918L14.9662 23.8458L13.6403 22.52Z" fill="#728BD7"/>
<path fill-rule="evenodd" clip-rule="evenodd" d="M21.155 30.0319L31.8089 19.3779L33.1348 20.7038L22.4808 31.3577L21.155 30.0319Z" fill="#728BD7"/>
<path fill-rule="evenodd" clip-rule="evenodd" d="M24.6926 33.5681L35.3465 22.9141L36.6724 24.24L26.0184 34.8939L24.6926 33.5681Z" fill="#728BD7"/>
<path fill-rule="evenodd" clip-rule="evenodd" d="M24.6915 33.5685C21.014 37.246 15.0648 37.2592 11.4037 33.598C7.74249 29.9369 7.75574 23.9877 11.4332 20.3102L10.1074 18.9844C5.69441 23.3974 5.67851 30.5364 10.0719 34.9298C14.4653 39.3232 21.6043 39.3073 26.0173 34.8943L24.6915 33.5685Z" fill="#728BD7"/>
<path fill-rule="evenodd" clip-rule="evenodd" d="M31.8054 19.3796L33.1312 20.7054C36.5636 17.273 36.576 11.7205 33.1589 8.3034C29.7418 4.88631 24.1892 4.89867 20.7569 8.33102L22.0827 9.65684C24.7795 6.96 29.1423 6.95029 31.8271 9.63514C34.512 12.32 34.5023 16.6827 31.8054 19.3796Z" fill="#728BD7"/>
<path fill-rule="evenodd" clip-rule="evenodd" d="M13.6343 22.5193C11.1826 24.9709 11.1738 28.937 13.6145 31.3778C16.0553 33.8186 20.0214 33.8098 22.4731 31.3581L21.1473 30.0323C19.4311 31.7484 16.6548 31.7546 14.9463 30.0461C13.2377 28.3375 13.2439 25.5613 14.9601 23.8451L13.6343 22.5193Z" fill="#728BD7"/>
</svg>
